<svg width="585" height="207" viewBox="0 0 585 207" fill="none" xmlns="http://www.w3.org/2000/svg">
<path d="M27.838 85.6915L9.77701 88.1831L0.166278 18.9747L18.2273 16.4831L27.838 85.6915Z" fill="url(#paint0_linear_114_6295)"/>
<path d="M68.3233 26.3838C73.8713 25.7613 78.478 26.8779 82.1434 29.7335C85.8087 32.5892 87.9783 36.9975 88.6522 42.9586L92.6119 77.9886L74.7038 79.9979L71.2792 49.7017C70.5498 43.2497 67.6921 40.3034 62.7059 40.8629C59.8968 41.178 57.7254 42.4159 56.1917 44.5766C54.6579 46.7372 54.1249 49.8864 54.5926 54.024L57.7438 81.9008L39.8357 83.91L33.8901 31.3124L49.9021 29.5159L51.6179 39.9763C52.7348 36.016 54.7273 32.8806 57.5954 30.5703C60.5337 28.252 64.1096 26.8565 68.3233 26.3838Z" fill="url(#paint1_linear_114_6295)"/>
<path d="M139.838 71.2282C138.171 72.5614 135.994 73.7221 133.307 74.71C130.685 75.6221 128 76.1852 125.252 76.3992C118.981 76.8876 114.05 75.9268 110.458 73.5166C106.865 71.1064 104.802 66.949 104.267 61.0445L102.366 36.8766L93.2772 37.5845L92.273 24.8146L101.362 24.1067L100.433 12.2866L118.009 5.92698L119.329 22.7073L135.076 21.4808L136.08 34.2507L120.333 35.4772L122.001 56.6901C122.371 61.404 124.882 63.5799 129.532 63.2177C132.491 62.9872 135.002 62.013 137.064 60.295L139.838 71.2282Z" fill="url(#paint2_linear_114_6295)"/>
<path d="M146.543 20.7583L162.43 20.0791L163.667 31.4695C166.13 23.0289 171.316 18.6396 179.224 18.3015C181.624 18.1988 183.548 18.5051 184.993 19.2203L183.835 34.1037C182.043 33.5446 179.805 33.3225 177.122 33.4372C173.662 33.5851 170.848 34.7649 168.681 36.9767C166.513 39.1885 165.515 42.2686 165.686 46.217L166.843 72.8686L148.838 73.6384L146.543 20.7583Z" fill="url(#paint3_linear_114_6295)"/>
<path d="M216.629 17.8846C222.212 17.9282 227.116 19.0604 231.34 21.2812C235.564 23.502 238.827 26.7033 241.129 30.8851C243.431 34.9963 244.562 39.91 244.52 45.6261C244.478 51.3422 243.24 56.2727 240.807 60.4175C238.445 64.4923 235.136 67.6069 230.879 69.7614C226.694 71.9165 221.809 72.9722 216.226 72.9286C210.714 72.8855 205.845 71.7536 201.621 69.5328C197.397 67.312 194.134 64.146 191.831 60.0348C189.53 55.853 188.4 50.904 188.442 45.1879C188.483 39.4718 189.685 34.5763 192.047 30.5015C194.41 26.3562 197.72 23.2062 201.976 21.0517C206.232 18.8972 211.117 17.8415 216.629 17.8846ZM216.535 30.6929C209.963 30.6415 206.641 35.5204 206.569 45.3295C206.497 55.1387 209.747 60.0689 216.32 60.1203C222.963 60.1722 226.321 55.2936 226.392 45.4844C226.464 35.6753 223.178 30.7448 216.535 30.6929Z" fill="url(#paint4_linear_114_6295)"/>
<path d="M312.108 1.7662L305.462 76.8403L289.411 75.4153L289.692 65.0258C287.903 68.4092 285.404 70.9859 282.197 72.7556C278.989 74.5254 275.414 75.2353 271.472 74.8853C264.854 74.2978 259.786 71.439 256.266 66.309C252.753 61.1087 251.373 54.2558 252.126 45.7502C252.636 39.9861 253.99 35.1116 256.188 31.1268C258.456 27.1482 261.341 24.2162 264.842 22.3308C268.414 20.4517 272.383 19.7059 276.747 20.0934C280.408 20.4184 283.463 21.5752 285.912 23.5638C288.432 25.5587 290.259 28.1651 291.393 31.383L294.156 0.17243L312.108 1.7662ZM278.869 62.2583C281.896 62.527 284.366 61.4711 286.28 59.0905C288.264 56.7162 289.461 53.2093 289.872 48.5699C290.264 44.1414 289.721 40.6571 288.243 38.1171C286.771 35.5068 284.522 34.0673 281.494 33.7986C278.326 33.5173 275.757 34.4935 273.785 36.7273C271.82 38.8907 270.625 42.3625 270.202 47.1425C269.779 51.9225 270.307 55.5825 271.785 58.1225C273.339 60.5984 275.701 61.977 278.869 62.2583Z" fill="url(#paint5_linear_114_6295)"/>
<path d="M336.725 83.1356C331.122 81.9586 327.035 79.5856 324.463 76.0167C321.975 72.3933 321.391 67.4394 322.712 61.155L329.984 26.5563L347.622 30.2617L341.22 60.7168C340.553 63.8935 340.696 66.3032 341.651 67.946C342.606 69.5887 344.363 70.6789 346.922 71.2166C349.55 71.7687 351.897 71.2524 353.964 69.6674C356.1 68.0971 357.574 65.3782 358.387 61.5109L364.222 33.7491L381.86 37.4544L370.973 89.2488L355.203 85.9358L356.731 76.0895C352.039 82.6032 345.371 84.9519 336.725 83.1356Z" fill="url(#paint6_linear_114_6295)"/>
<path d="M419.078 48.7299C426.168 51.3578 431.161 54.8641 434.057 59.2488C437.018 63.658 438.107 68.2386 437.323 72.9906L419.801 72.3671C421.251 66.4317 419.689 62.6167 415.117 60.9221C411.869 59.7186 409.033 59.9469 406.608 61.6069C404.182 63.2669 402.073 66.5117 400.28 71.3414C396.915 80.4052 398.48 86.1406 404.974 88.5475C409.679 90.2913 413.424 88.6311 416.209 83.5669L429.612 94.0662C427.171 98.2042 423.335 100.922 418.104 102.22C412.939 103.542 407.11 102.999 400.615 100.592C392.332 97.5224 386.619 92.8084 383.476 86.4505C380.399 80.1171 380.359 72.9147 383.356 64.8432C385.345 59.4842 388.145 55.2914 391.757 52.2646C395.393 49.1716 399.546 47.3242 404.218 46.7223C408.955 46.145 413.909 46.8142 419.078 48.7299Z" fill="url(#paint7_linear_114_6295)"/>
<path d="M464.58 63.4037C461.341 61.6669 459.292 59.8071 458.433 57.8243C457.669 55.8128 457.988 53.5015 459.392 50.8905C460.829 48.2173 462.581 46.6742 464.648 46.2613C466.811 45.8196 469.512 46.4671 472.75 48.2039C475.988 49.9408 477.989 51.815 478.753 53.8265C479.613 55.8093 479.324 58.1373 477.887 60.8104C476.484 63.4215 474.701 64.9478 472.538 65.3896C470.471 65.8025 467.818 65.1406 464.58 63.4037ZM444.55 119.696L428.67 111.179L453.732 64.5537L469.612 73.0708L444.55 119.696Z" fill="url(#paint8_linear_114_6295)"/>
<path d="M514.831 102.727C519.237 106.154 521.751 110.168 522.375 114.767C522.999 119.367 521.465 124.032 517.775 128.763L496.087 156.566L481.867 145.503L500.624 121.457C504.618 116.336 504.636 112.236 500.677 109.156C498.446 107.42 496.026 106.789 493.416 107.263C490.806 107.737 488.221 109.616 485.659 112.9L468.4 135.025L454.18 123.962L486.744 82.2168L499.458 92.1084L493.364 100.783C496.935 98.7316 500.555 97.8812 504.225 98.2316C507.95 98.6254 511.485 100.124 514.831 102.727Z" fill="url(#paint9_linear_114_6295)"/>
<path d="M530.198 178.084C534.201 182.746 536.269 187.159 536.402 191.323C536.634 195.494 534.926 199.142 531.279 202.264C526.344 206.49 520.963 207.703 515.136 205.903C509.256 204.15 503.348 199.817 497.411 192.905C485.63 179.188 483.119 169.436 489.877 163.649C493.846 160.251 498.496 160.733 503.826 165.096C501.868 159.891 502.874 155.59 506.844 152.191C508.721 150.584 510.84 149.746 513.201 149.677C515.616 149.562 518.023 150.198 520.423 151.583C518.994 145.368 520.801 140.101 525.843 135.785C530.188 132.065 534.99 130.882 540.249 132.237C545.608 133.6 550.933 137.363 556.226 143.525C558.895 146.633 560.989 149.721 562.508 152.791C565.995 150.456 569.589 149.331 573.292 149.416C577.041 149.554 580.342 151.284 583.195 154.606L584.15 155.881L576.024 164.79C575.303 163.734 574.759 162.991 574.391 162.562C572.872 160.794 571.254 159.669 569.537 159.187C567.873 158.658 566.263 158.735 564.707 159.416C565.799 165.455 563.958 170.519 559.184 174.606C554.839 178.326 550.037 179.508 544.778 178.153C539.519 176.798 534.243 173.04 528.951 166.877C526.558 164.091 524.636 161.366 523.186 158.702C521.131 157.393 519.433 157.313 518.092 158.461C516.268 160.022 516.645 162.303 519.222 165.304L530.198 178.084ZM548.421 150.207C546.857 148.385 545.104 147.374 543.165 147.175C541.226 146.976 539.317 147.68 537.44 149.288C535.616 150.849 534.655 152.602 534.556 154.546C534.457 156.49 535.19 158.374 536.755 160.195C538.274 161.964 540.003 162.947 541.942 163.146C543.928 163.399 545.832 162.745 547.656 161.183C549.48 159.622 550.418 157.842 550.471 155.844C550.623 153.854 549.94 151.975 548.421 150.207ZM506.33 185.408C509.552 189.159 512.366 191.677 514.774 192.963C517.227 194.303 519.071 194.445 520.305 193.388C522.021 191.919 521.706 189.818 519.359 187.085L507.003 172.698C506.128 171.68 505.147 171.079 504.058 170.895C503.016 170.765 502.092 171.044 501.288 171.733C500.054 172.789 499.898 174.504 500.819 176.877C501.686 179.296 503.523 182.139 506.33 185.408Z" fill="url(#paint10_linear_114_6295)"/>
<defs>
<linearGradient id="paint0_linear_114_6295" x1="53.9086" y1="86.9384" x2="1120.77" y2="693.899" gradientUnits="userSpaceOnUse">
<stop stop-color="#00BEDD"/>
<stop offset="1" stop-color="#953BED"/>
</linearGradient>
<linearGradient id="paint1_linear_114_6295" x1="53.9086" y1="86.9384" x2="1120.77" y2="693.899" gradientUnits="userSpaceOnUse">
<stop stop-color="#00BEDD"/>
<stop offset="1" stop-color="#953BED"/>
</linearGradient>
<linearGradient id="paint2_linear_114_6295" x1="53.9086" y1="86.9384" x2="1120.77" y2="693.899" gradientUnits="userSpaceOnUse">
<stop stop-color="#00BEDD"/>
<stop offset="1" stop-color="#953BED"/>
</linearGradient>
<linearGradient id="paint3_linear_114_6295" x1="53.9086" y1="86.9384" x2="1120.77" y2="693.899" gradientUnits="userSpaceOnUse">
<stop stop-color="#00BEDD"/>
<stop offset="1" stop-color="#953BED"/>
</linearGradient>
<linearGradient id="paint4_linear_114_6295" x1="53.9086" y1="86.9384" x2="1120.77" y2="693.899" gradientUnits="userSpaceOnUse">
<stop stop-color="#00BEDD"/>
<stop offset="1" stop-color="#953BED"/>
</linearGradient>
<linearGradient id="paint5_linear_114_6295" x1="53.9086" y1="86.9384" x2="1120.77" y2="693.899" gradientUnits="userSpaceOnUse">
<stop stop-color="#00BEDD"/>
<stop offset="1" stop-color="#953BED"/>
</linearGradient>
<linearGradient id="paint6_linear_114_6295" x1="53.9086" y1="86.9384" x2="1120.77" y2="693.899" gradientUnits="userSpaceOnUse">
<stop stop-color="#00BEDD"/>
<stop offset="1" stop-color="#953BED"/>
</linearGradient>
<linearGradient id="paint7_linear_114_6295" x1="53.9086" y1="86.9384" x2="1120.77" y2="693.899" gradientUnits="userSpaceOnUse">
<stop stop-color="#00BEDD"/>
<stop offset="1" stop-color="#953BED"/>
</linearGradient>
<linearGradient id="paint8_linear_114_6295" x1="53.9086" y1="86.9384" x2="1120.77" y2="693.899" gradientUnits="userSpaceOnUse">
<stop stop-color="#00BEDD"/>
<stop offset="1" stop-color="#953BED"/>
</linearGradient>
<linearGradient id="paint9_linear_114_6295" x1="53.9086" y1="86.9384" x2="1120.77" y2="693.899" gradientUnits="userSpaceOnUse">
<stop stop-color="#00BEDD"/>
<stop offset="1" stop-color="#953BED"/>
</linearGradient>
<linearGradient id="paint10_linear_114_6295" x1="53.9086" y1="86.9384" x2="1120.77" y2="693.899" gradientUnits="userSpaceOnUse">
<stop stop-color="#00BEDD"/>
<stop offset="1" stop-color="#953BED"/>
</linearGradient>
</defs>
</svg>
