<svg width="158" height="68" viewBox="0 0 158 68" fill="none" xmlns="http://www.w3.org/2000/svg">
<g clip-path="url(#clip0_114_5838)">
<path d="M8.97739 34.4324C8.73911 33.0439 8.44332 31.6964 7.76136 30.62C6.8329 29.1575 5.20605 28.1633 1.98522 28.1387L1.93593 29.9709C3.07801 29.9381 4.179 30.0449 5.10746 30.6365C5.90445 31.1377 6.56998 31.9675 7.0794 33.3479C4.2776 32.3948 2.69183 32.6823 1.56619 33.4054C0.982822 33.7833 0.522703 34.2845 0.0708008 34.794L1.34434 35.9607C1.41829 35.8539 1.50046 35.7553 1.56619 35.6649C2.93011 34.0463 4.51588 34.0956 6.19202 34.9912C2.56859 36.7412 1.98522 39.806 2.1742 42.0162C2.33853 42.0408 3.95716 42.0162 3.95716 42.0162C3.80105 39.8635 5.33752 36.9795 8.52548 36.1086L9.00203 35.1308L8.97739 34.4324Z" fill="#8000DB"/>
<path d="M32.8378 15.462C38.2114 8.00977 40.857 4.31238 38.7372 2.52121C37.3322 1.34626 35.4342 2.17612 32.3695 4.4685C32.2627 6.91699 31.6711 10.4007 30.8823 15.0266L32.8378 15.462Z" fill="#008298"/>
<path d="M36.2394 60.1514H34.2675C34.2182 62.9696 34.2921 65.87 31.2849 66.7984C31.3835 66.8067 31.4903 66.8231 31.6054 66.8313C31.9258 66.8642 32.238 66.8395 32.542 66.7738C36.2805 65.8207 36.1819 62.9449 36.2394 60.1514Z" fill="#580098"/>
<path d="M38.3675 60.1502L36.2888 55.2286H38.2278L36.601 50.5781H33.906L35.1631 55.2286H33.6677L35.2699 60.1502H36.2312H38.3675Z" fill="#98005E"/>
<path d="M31.2848 66.7984C34.292 65.87 34.218 62.986 34.2673 60.1514H27.1273C27.0862 64.35 28.598 66.3958 31.2848 66.7984Z" fill="#8000DB"/>
<path d="M33.6596 55.2304H35.1468L33.8979 50.5963L26.6346 50.5635L24.9502 55.3783L26.7907 55.518L24.9502 60.152H35.2782L33.6596 55.2304Z" fill="#FF009E"/>
<path d="M18.5988 55.4102L16.6762 50.5297L13.9812 50.5215L15.3123 55.3116H13.7922L15.4355 60.2826L18.8453 60.3154L16.4708 55.3938L18.5988 55.4102Z" fill="#98005E"/>
<path d="M13.7757 55.2947H15.2957L13.9729 50.5045L6.60278 50.4717L4.81982 55.4426L6.70138 55.5823L4.81982 60.2574L15.4108 60.2821L13.7757 55.2947Z" fill="#FF009E"/>
<path d="M30.5947 0.0641919C27.7025 -0.634203 26.0182 3.98342 21.8196 13.005L30.8823 15.0181C31.6628 10.3922 32.2626 6.90846 32.3694 4.45997C32.4845 1.84715 32.0244 0.425714 30.5947 0.0641919Z" fill="#00BEDD"/>
<path d="M36.1326 45.8301L38.5235 45.9862L35.9764 40.9002H38.0716L36.1819 36.2744H34.5632H33.1582L34.859 40.9002H32.9692L35.2616 45.9862L33.1089 45.8301L35.4013 50.5956L38.6714 50.6038L36.1326 45.8301Z" fill="#FF9900"/>
<path d="M38.5234 31.5085L36.765 26.5869H33.3635L34.8095 31.5085H32.7144L34.5548 36.2905H38.2029L35.9598 31.5085H38.5234Z" fill="#008298"/>
<path d="M21.8362 13.0127C21.8197 13.0373 21.8197 13.0127 21.8362 13.0127L17.8101 21.0237L20.0368 21.073L17.3665 26.5862H36.7407L34.2347 25.5263C33.8568 25.3702 33.6267 25.0662 33.7253 24.8608C33.7335 24.8361 33.75 24.8279 33.7582 24.8115C33.8732 24.6471 34.2183 24.6225 34.5634 24.7622L34.6702 24.8115L36.4285 25.5591L37.9486 26.2V16.6033L21.8362 13.0127Z" fill="#FFE001"/>
<path d="M31.5808 22.1496C32.7968 22.1496 33.791 21.1636 33.791 19.9229C33.791 18.6987 32.8051 17.6963 31.5808 17.6963C30.3648 17.6963 29.3706 18.6823 29.3706 19.9229C29.3706 21.1636 30.373 22.1496 31.5808 22.1496ZM31.5808 18.8219C32.1888 18.8219 32.69 19.3231 32.69 19.9312C32.69 20.5392 32.1888 21.0404 31.5808 21.0404C30.9728 21.0404 30.4716 20.5392 30.4716 19.9312C30.4798 19.3231 30.9728 18.8219 31.5808 18.8219Z" fill="white"/>
<path d="M31.6546 21.0321C32.2626 20.9992 32.7228 20.4734 32.6899 19.8571C32.657 19.2491 32.1312 18.7726 31.515 18.8219C30.9069 18.8547 30.4468 19.3806 30.4797 19.9968C30.5125 20.6048 31.0466 21.0732 31.6546 21.0321Z" fill="black"/>
<path d="M37.9322 26.5852V26.1908L34.6538 24.7858L34.547 24.7365C34.2019 24.5969 33.8733 24.6215 33.7418 24.7858C33.7336 24.7941 33.7172 24.8187 33.709 24.8351C33.6268 25.0405 33.8486 25.3446 34.2184 25.5007L36.7244 26.5606H36.7737L37.9322 26.5852Z" fill="black"/>
<path d="M32.7312 31.5085H34.81L33.3721 26.5869H19.7082L17.6377 31.5085H19.7164L17.7527 36.2741H17.7774V36.2823C17.8267 36.2823 17.876 36.2823 17.9171 36.2823H33.1421H34.5553L32.7312 31.5085Z" fill="#00BEDD"/>
<path d="M17.7443 36.2736L8.99382 35.0986L6.32349 40.5461H8.09823C7.9339 40.768 7.74493 41.0227 7.57238 41.2856L10.0291 43.5944L13.2171 40.579L16.3229 43.6683L19.5108 40.6529L22.6988 43.6683L25.8046 40.579L25.9032 40.6776L28.9843 43.5862L32.1723 40.5708L33.3883 41.7704L33.0104 40.9158H34.9001L33.1994 36.2818H25.8785H17.7936H17.7689" fill="#FFE001"/>
<path d="M33.117 45.8297L35.2697 45.9694L34.826 45.0081L32.1393 42.3213L28.9677 45.5093L25.7798 42.3213L22.6082 45.5175L19.4942 42.4035L16.3063 45.4189L13.2251 42.3542L10.0536 45.5421L6.88205 42.3706C6.67664 42.7157 5.43596 44.8766 5.00049 45.6982L7.42433 45.8379L5.27163 50.472L35.4423 50.6034L33.117 45.8297Z" fill="#FFE001"/>
<path d="M33.3801 41.7541L32.1641 40.5381L28.9762 43.5535L25.7882 40.5381L22.6906 43.6275L19.5026 40.612L16.3229 43.6275L13.2171 40.5381L10.0291 43.5535L7.57242 41.2447C7.35058 41.5898 7.09587 41.9431 6.87402 42.3375L10.0456 45.509L13.2171 42.321L16.2982 45.3858L19.4862 42.3703L22.6002 45.4844L25.7882 42.2964L28.9762 45.4844L32.1477 42.2964L34.8345 44.9832L33.3801 41.7541Z" fill="black"/>
<path d="M14.4411 60.2568C14.3918 63.0997 14.4739 66.0083 11.4585 66.945C11.6393 66.9696 11.8282 66.9943 12.0172 67.0025C12.1733 67.0107 12.3541 67.0025 12.502 66.9696C12.6417 66.9368 12.7896 66.8957 12.921 66.8628C13.11 66.8053 13.3154 66.7478 13.4797 66.6821C13.5948 66.6328 13.7016 66.5835 13.8248 66.5424C13.8988 66.5095 13.9645 66.4684 14.0302 66.4356C14.096 66.4027 14.1617 66.3616 14.2192 66.3288C14.3178 66.2712 14.4082 66.2137 14.5068 66.148C14.5643 66.1151 14.6136 66.0658 14.6711 66.033C14.7861 65.9344 14.9094 65.844 15.0162 65.7372C15.123 65.6304 15.2298 65.5153 15.3366 65.3921C15.3695 65.3428 15.4106 65.3099 15.4435 65.2606C15.4928 65.2031 15.5256 65.1456 15.5585 65.0799C15.6324 64.9648 15.6982 64.8334 15.7639 64.7101C15.7968 64.6526 15.8214 64.5787 15.8625 64.5211C15.8707 64.4883 15.8954 64.4472 15.9118 64.4143C15.9364 64.365 15.9447 64.3075 15.9693 64.2582C15.9775 64.2336 15.994 64.2089 15.994 64.1761C16.0268 64.0692 16.0679 63.9624 16.0925 63.8392C16.0925 63.8145 16.1008 63.7899 16.1008 63.7817C16.1254 63.7077 16.1336 63.642 16.1501 63.568C16.1501 63.5598 16.1583 63.5352 16.1583 63.5187C16.1665 63.4366 16.1911 63.3544 16.2076 63.2558C16.2158 63.2065 16.2158 63.1572 16.2322 63.1161C16.2404 63.0668 16.2404 63.0093 16.2569 62.96C16.2897 62.7135 16.3144 62.4835 16.3308 62.2206C16.3555 61.9083 16.3637 61.6125 16.3637 61.3085C16.3719 60.9717 16.3719 60.6512 16.3883 60.3226L14.4411 60.2568Z" fill="#580098"/>
<path d="M7.28471 60.249C7.27649 61.0707 7.31757 61.8101 7.42439 62.4757C7.45725 62.7386 7.50655 62.9769 7.56407 63.2151C7.59693 63.3713 7.64623 63.5274 7.6791 63.6671C8.29533 65.639 9.57709 66.6743 11.4258 66.9618C14.4412 66.0252 14.359 63.1083 14.4083 60.2737H7.28471V60.249Z" fill="#8000DB"/>
<path d="M45.1294 21.7148C44.4063 23.5471 42.0071 25.0343 37.8989 25.3958V26.1928V26.5872C38.1865 26.579 38.433 26.5543 38.7041 26.5379C39.0246 26.5132 39.3204 26.4804 39.6162 26.4311C39.8873 26.3982 40.142 26.3489 40.3885 26.2996C41.4977 26.0778 42.4097 25.7327 43.1492 25.2972C43.3053 25.1986 43.4696 25.1082 43.6011 25.0014C43.6751 24.9521 43.7326 24.9028 43.8065 24.8453C43.9955 24.6892 44.1845 24.5084 44.3406 24.3441C44.4474 24.2373 44.5296 24.1223 44.6282 23.9908C44.8336 23.6786 44.9979 23.3746 45.0883 23.0541C45.2115 22.6269 45.228 22.175 45.1294 21.7148Z" fill="#98005E"/>
<path d="M38.8113 16.8181C38.5237 16.7442 38.2444 16.662 37.9321 16.6045V19.1023V21.6001V25.4125C42.0239 25.0427 44.4231 23.5474 45.1626 21.7315C44.7846 19.85 42.673 17.8945 38.8113 16.8181Z" fill="#FF009E"/>
<path d="M77.7981 25.3463C79.2031 26.5788 79.9179 28.2796 79.9179 30.4734C79.9179 32.6589 79.2196 34.3597 77.7981 35.6004C76.3931 36.8329 74.4458 37.4573 71.9645 37.4573H67.4126V45.1068H62.8936V23.5059H71.9645C74.4458 23.5059 76.3849 24.1221 77.7981 25.3463ZM75.325 30.4734C75.325 28.2056 73.9693 27.0718 71.2743 27.0718H67.4126V33.8832H71.2743C73.9693 33.8832 75.325 32.7411 75.325 30.4734Z" fill="black"/>
<path d="M82.0625 23.999C82.0625 22.3804 82.991 21.5752 84.8479 21.5752C86.7048 21.5752 87.6332 22.3804 87.6332 23.999C87.6332 25.593 86.7048 26.39 84.8479 26.39C82.991 26.39 82.0625 25.5848 82.0625 23.999ZM87.0663 45.107H82.5883V28.7399H87.0663V45.107Z" fill="black"/>
<path d="M104.863 29.947C105.947 30.9659 106.481 32.4448 106.481 34.3675V45.1063H102.003V35.641C102.003 33.1843 101.018 31.9436 99.0538 31.9436C98.0103 31.9436 97.1312 32.3134 96.3999 33.0364C95.6769 33.7759 95.3153 34.9015 95.3153 36.4216V45.1063H90.8374V28.7392H94.8634L95.0278 31.7793C95.5536 30.6619 96.2849 29.832 97.2544 29.2568C98.2157 28.6899 99.325 28.4023 100.598 28.4023C102.349 28.4188 103.778 28.9282 104.863 29.947Z" fill="black"/>
<path d="M126.111 42.1904L125.848 44.9757C125.281 45.2633 124.574 45.403 123.72 45.403C122.758 45.3783 121.937 45.1812 121.246 44.7868C120.556 44.3924 120.096 43.8254 119.858 43.086C119.357 43.8254 118.625 44.4088 117.672 44.8196C116.711 45.2387 115.709 45.4359 114.665 45.4359C112.964 45.4359 111.633 45.0579 110.68 44.2938C109.727 43.5297 109.25 42.4369 109.25 41.0237C109.25 39.8241 109.645 38.8381 110.417 38.0657C111.19 37.2934 112.315 36.7429 113.802 36.4471L119.439 35.305V34.6888C119.439 33.7768 119.176 33.0455 118.642 32.5115C118.108 31.9774 117.409 31.7145 116.522 31.7145C114.731 31.7145 113.572 32.6018 113.055 34.4012L109.226 33.2263C109.62 31.7391 110.45 30.5724 111.707 29.7179C112.964 28.8634 114.64 28.4443 116.711 28.4443C118.913 28.4443 120.655 28.9702 121.953 30.0055C123.235 31.0407 123.876 32.5361 123.876 34.508V41.1058C123.876 41.9357 124.27 42.3547 125.051 42.3547C125.437 42.3629 125.79 42.2972 126.111 42.1904ZM118.412 41.5084C119.102 41.0072 119.447 40.202 119.447 39.0846V38.074L116.013 38.7641C115.207 38.9203 114.624 39.1174 114.279 39.3804C113.934 39.6433 113.753 40.0459 113.753 40.5964C113.753 41.1222 113.958 41.5249 114.345 41.8206C114.739 42.1164 115.224 42.2643 115.815 42.2643C116.851 42.2643 117.722 42.0014 118.412 41.5084Z" fill="black"/>
<path d="M139.232 44.0958C138.682 44.5149 138.033 44.8353 137.244 45.0818C136.472 45.3201 135.65 45.4351 134.771 45.4351C131.065 45.4351 129.208 43.7836 129.208 40.4888V32.0752H126.201V28.7312H129.208V24.9598L133.686 23.7109V28.7147H138.928V32.067H133.686V39.7658C133.686 41.2776 134.434 42.0253 135.946 42.0253C136.932 42.0253 137.778 41.7131 138.501 41.1133L139.232 44.0958Z" fill="black"/>
<path d="M157.826 42.1904L157.563 44.9757C156.996 45.2633 156.289 45.403 155.435 45.403C154.474 45.3783 153.652 45.1812 152.962 44.7868C152.272 44.3924 151.811 43.8254 151.573 43.086C151.072 43.8254 150.341 44.4088 149.388 44.8196C148.426 45.2387 147.424 45.4359 146.38 45.4359C144.68 45.4359 143.349 45.0579 142.395 44.2938C141.442 43.5297 140.966 42.4369 140.966 41.0237C140.966 39.8241 141.36 38.8381 142.133 38.0657C142.905 37.2934 144.031 36.7429 145.518 36.4471L151.154 35.305V34.6888C151.154 33.7768 150.891 33.0455 150.357 32.5115C149.823 31.9774 149.125 31.7145 148.237 31.7145C146.446 31.7145 145.288 32.6018 144.77 34.4012L140.941 33.2263C141.336 31.7391 142.165 30.5724 143.423 29.7179C144.68 28.8634 146.356 28.4443 148.426 28.4443C150.628 28.4443 152.37 28.9702 153.668 30.0055C154.95 31.0407 155.591 32.5361 155.591 34.508V41.1058C155.591 41.9357 155.985 42.3547 156.766 42.3547C157.152 42.3629 157.505 42.2972 157.826 42.1904ZM150.127 41.5084C150.817 41.0072 151.162 40.202 151.162 39.0846V38.074L147.728 38.7641C146.923 38.9203 146.339 39.1174 145.994 39.3804C145.649 39.6433 145.468 40.0459 145.468 40.5964C145.468 41.1222 145.674 41.5249 146.06 41.8206C146.454 42.1164 146.939 42.2643 147.531 42.2643C148.566 42.2643 149.437 42.0014 150.127 41.5084Z" fill="black"/>
</g>
<defs>
<clipPath id="clip0_114_5838">
<rect width="157.755" height="67.0212" fill="white" transform="translate(0.0708008)"/>
</clipPath>
</defs>
</svg>
