<svg width="80" height="54" viewBox="0 0 80 54" fill="none" xmlns="http://www.w3.org/2000/svg">
<path d="M6.35376 34.8504H3.17688V28.514C3.17688 27.6427 2.46208 26.9299 1.58844 26.9299C0.714798 26.9299 0 27.6427 0 28.514V44.3551C0 45.2264 0.714798 45.9392 1.58844 45.9392C2.46208 45.9392 3.17688 45.2264 3.17688 44.3551V38.0187H6.35376V34.8504Z" fill="#A8A8F9"/>
<path d="M50.1471 12.6729C46.4301 12.6729 41.4107 12.6729 37.4396 12.6729C32.1818 12.6729 27.9089 16.9341 27.9089 22.1776V27.4368L59.6777 26.1378V22.1776C59.6777 16.9341 55.4048 12.6729 50.1471 12.6729Z" fill="#A8A8F9"/>
<path d="M67.3978 22.827C65.3169 22.9063 21.4283 24.6646 19.0457 24.7597C14.4551 24.9973 10.5317 27.8645 8.83203 31.9674V40.8859C10.5475 45.0204 14.4869 47.856 19.0457 48.0936L66.4447 50.0262C73.1479 50.3747 79.74 45.0521 79.74 38.3513V34.4703C79.74 27.8012 74.101 22.4785 67.3978 22.827Z" fill="#A8A8F9"/>
<path d="M50.1945 0C44.9367 0 40.6638 4.26126 40.6638 9.50467C40.6638 11.1997 40.6638 10.1066 40.6638 12.6729H47.0176C47.0176 11.0571 47.0176 12.0709 47.0176 9.50467C47.0176 7.76215 48.4472 6.33645 50.1945 6.33645H56.5482V0H50.1945Z" fill="#A8A8F9"/>
<path d="M15.8844 34.8504V38.0187L6.35376 41.1869V31.6822L15.8844 34.8504Z" fill="#A8A8F9"/>
<path d="M12.7075 19.0093H7.94214L9.92769 29.9238L16.615 25.1398L12.7075 19.0093Z" fill="#A8A8F9"/>
<path d="M9.92769 42.9453L7.94214 53.8598H12.7075L16.615 47.7293L9.92769 42.9453Z" fill="#A8A8F9"/>
</svg>
