<svg width="706" height="250" viewBox="0 0 706 250" fill="none" xmlns="http://www.w3.org/2000/svg">
<path d="M15.8123 51.756C11.4303 48.6576 7.88481 45.1125 5.17555 41.1208C2.50716 37.0714 0.902044 32.8655 0.360286 28.5033L13.0412 25.2727C13.1509 28.2914 13.9873 31.2617 15.5507 34.1838C17.155 37.0482 19.3697 39.4793 22.1949 41.4769C24.0399 42.7815 25.6941 43.5618 27.1574 43.818C28.7192 44.0573 29.8679 43.6584 30.6035 42.6215C31.1756 41.815 31.308 40.957 31.0007 40.0477C30.792 39.1215 29.9741 37.8945 28.5473 36.3666L23.3514 30.8761C18.7658 25.9901 16.0759 21.666 15.2817 17.9037C14.4874 14.1415 15.3571 10.4745 17.8908 6.90278C19.6072 4.48322 21.9709 2.73768 24.982 1.66615C28.034 0.537003 31.5579 0.39028 35.5536 1.22601C39.5493 2.06173 43.767 4.04919 48.2066 7.18835C52.5885 10.2867 55.9731 13.6315 58.3605 17.2227C60.8056 20.8547 62.1789 24.5939 62.4806 28.4403L49.8357 31.4369C49.6371 28.7878 48.7897 26.199 47.2934 23.6705C45.838 21.0843 44.0148 19.0167 41.8239 17.4675C39.7482 15.9998 37.9584 15.1667 36.4543 14.9682C35.0486 14.7528 33.978 15.1636 33.2424 16.2006C32.6703 17.0071 32.5751 17.9346 32.9569 18.9831C33.3386 20.0315 34.3378 21.4301 35.9544 23.1787L42.7212 30.299C49.9781 37.7658 51.2976 44.7541 46.6797 51.2639C43.5739 55.6421 39.2817 57.9704 33.8031 58.2487C28.3245 58.5271 22.3275 56.3629 15.8123 51.756Z" fill="url(#paint0_linear_114_6296)"/>
<path d="M56.95 82.2942C52.4152 78.8089 49.7658 74.9019 49.0018 70.5731C48.337 66.2314 49.9668 61.5152 53.8914 56.4246L75.4982 28.3982L89.7745 39.3703L70.7553 64.0403C68.7715 66.6135 67.8521 68.8468 67.9973 70.7402C68.1425 72.6335 69.2508 74.3762 71.3223 75.9682C73.4497 77.6033 75.7891 78.154 78.3403 77.6203C80.9475 77.1296 83.4587 75.3179 85.8738 72.1853L103.211 49.697L117.487 60.6692L85.1417 102.625L72.3771 92.8145L78.0382 84.6041C70.9776 88.4427 63.9482 87.6727 56.95 82.2942Z" fill="url(#paint1_linear_114_6296)"/>
<path d="M154.408 86.8967C157.719 89.3073 160.013 92.3319 161.29 95.9704C162.625 99.6504 162.756 103.721 161.683 108.182C160.709 112.628 158.535 117.161 155.161 121.781C151.828 126.344 148.19 129.768 144.248 132.053C140.405 134.322 136.496 135.364 132.521 135.179C128.645 134.978 124.938 133.589 121.399 131.012C118.031 128.56 115.757 125.507 114.579 121.853C113.499 118.184 113.505 114.344 114.598 110.334L107.296 119.434L94.537 110.145L139.031 49.2277L153.587 59.8262L134.965 85.3222C138.039 83.6283 141.238 82.8996 144.563 83.1362C147.929 83.3157 151.211 84.5692 154.408 86.8967ZM124.158 116.639C126.727 118.51 129.384 119.003 132.129 118.118C134.972 117.218 137.81 114.828 140.643 110.95C143.476 107.071 144.866 103.671 144.814 100.75C144.861 97.8129 143.599 95.4093 141.031 93.539C138.576 91.7518 135.885 91.3654 132.958 92.3797C130.088 93.4356 127.32 95.7887 124.654 99.4392C121.988 103.09 120.611 106.412 120.523 109.406C120.492 112.441 121.703 114.852 124.158 116.639Z" fill="url(#paint2_linear_114_6296)"/>
<path d="M177.683 106.473L191.687 114.42L187.063 123.611C190.354 121.256 193.793 120 197.377 119.842C201.059 119.657 204.65 120.559 208.151 122.546C211.591 124.498 214.115 126.986 215.725 130.011C217.431 133.009 218.029 136.312 217.518 139.92C220.609 137.776 223.973 136.721 227.61 136.756C231.283 136.729 234.809 137.674 238.187 139.591C242.855 142.24 245.86 145.813 247.2 150.309C248.541 154.805 247.695 159.643 244.663 164.825L227.021 195.372L211.542 186.588L226.955 159.526C229.961 154.248 229.376 150.424 225.199 148.054C222.742 146.66 220.269 146.434 217.782 147.377C215.294 148.32 213.089 150.479 211.167 153.854L197.169 178.431L181.506 169.542L196.919 142.48C199.925 137.203 199.34 133.379 195.163 131.009C192.829 129.684 190.387 129.476 187.838 130.384C185.289 131.292 183.001 133.526 180.974 137.085L167.133 161.386L151.47 152.497L177.683 106.473Z" fill="url(#paint3_linear_114_6296)"/>
<path d="M298.99 211.37C300.185 211.806 301.196 212.025 302.023 212.026L297.489 221.307C295.157 221.507 292.565 221.087 289.712 220.044C286.461 218.856 283.959 217.266 282.207 215.273C280.48 213.214 279.668 210.813 279.772 208.069C277.569 209.971 274.731 211.039 271.259 211.273C267.811 211.442 264.329 210.884 260.812 209.599C255.636 207.708 251.981 205.058 249.847 201.647C247.736 198.17 247.496 194.211 249.126 189.77C251.825 182.413 257.995 179.443 267.633 180.859L286.165 183.571L286.676 182.179C287.527 179.859 287.533 177.794 286.692 175.983C285.942 174.131 284.472 172.805 282.283 172.005C277.439 170.235 273.574 171.642 270.688 176.225L257.596 167.609C260.325 163.043 264.224 160.108 269.293 158.803C274.429 157.522 280.513 158.166 287.546 160.736C294.845 163.402 299.89 167.087 302.679 171.789C305.535 176.515 305.844 181.928 303.606 188.025L296.93 206.22C295.981 208.805 296.668 210.521 298.99 211.37ZM270.2 200.626C272.655 201.523 274.934 201.566 277.037 200.756C279.231 199.904 280.839 198.086 281.86 195.302L282.882 192.519L274.2 191.263C271.973 190.976 270.249 191.06 269.028 191.516C267.831 191.906 266.965 192.83 266.43 194.288C265.895 195.746 265.992 197.022 266.719 198.114C267.447 199.207 268.607 200.044 270.2 200.626Z" fill="url(#paint4_linear_114_6296)"/>
<path d="M320.086 172.861L335.535 176.61L333.545 187.895C338.266 180.468 344.471 177.688 352.161 179.554C354.496 180.121 356.258 180.948 357.447 182.035L352.182 196.012C350.616 194.978 348.529 194.145 345.92 193.512C342.555 192.696 339.524 193.05 336.824 194.574C334.125 196.098 332.307 198.781 331.37 202.621L325.046 228.545L307.537 224.297L320.086 172.861Z" fill="url(#paint5_linear_114_6296)"/>
<path d="M375.652 178.407C372.022 177.837 369.474 176.758 368.009 175.17C366.624 173.523 366.163 171.236 366.627 168.308C367.101 165.31 368.246 163.275 370.062 162.202C371.958 161.071 374.72 160.791 378.35 161.362C381.98 161.932 384.487 163.041 385.872 164.688C387.338 166.275 387.833 168.568 387.358 171.566C386.895 174.494 385.715 176.524 383.819 177.655C382.004 178.727 379.281 178.978 375.652 178.407ZM375.313 238.159L357.513 235.361L365.791 183.074L383.591 185.872L375.313 238.159Z" fill="url(#paint6_linear_114_6296)"/>
<path d="M430.547 189.585C436.108 190.075 440.399 192.082 443.419 195.608C446.44 199.133 447.684 203.883 447.152 209.859L444.025 244.975L426.074 243.394L428.779 213.023C429.355 206.555 427.144 203.101 422.146 202.661C419.33 202.413 416.955 203.196 415.02 205.009C413.085 206.823 411.933 209.803 411.563 213.951L409.075 241.896L391.124 240.315L395.82 187.588L411.869 189.002L411.458 199.594C413.345 195.934 415.925 193.256 419.197 191.561C422.54 189.871 426.324 189.213 430.547 189.585Z" fill="url(#paint7_linear_114_6296)"/>
<path d="M511.287 219.387C511.178 221.784 510.932 224.105 510.548 226.349L474.437 224.75C474.772 228.297 475.819 230.957 477.578 232.73C479.341 234.433 481.846 235.357 485.093 235.501C490.035 235.719 493.444 233.857 495.32 229.913L509.507 235.31C507.824 239.686 504.668 243.008 500.038 245.276C495.482 247.476 490.31 248.448 484.52 248.192C475.696 247.801 468.815 245.094 463.877 240.072C459.014 234.982 456.777 228.101 457.169 219.428C457.426 213.718 458.812 208.869 461.327 204.883C463.844 200.826 467.235 197.797 471.499 195.796C475.763 193.795 480.648 192.916 486.155 193.16C491.591 193.4 496.238 194.666 500.096 196.956C503.954 199.246 506.821 202.34 508.697 206.238C510.643 210.139 511.506 214.522 511.287 219.387ZM485.587 205.745C479.868 205.492 476.332 208.62 474.977 215.13L494.25 215.984C493.911 209.399 491.023 205.986 485.587 205.745Z" fill="url(#paint8_linear_114_6296)"/>
<path d="M529.78 230.16C533.101 230.188 535.672 231.057 537.494 232.767C539.386 234.477 540.318 236.849 540.29 239.884C540.262 242.848 539.287 245.169 537.363 246.846C535.51 248.524 532.923 249.349 529.601 249.32C526.28 249.292 523.673 248.423 521.781 246.713C519.959 245.003 519.062 242.667 519.09 239.702C519.118 236.668 520.059 234.312 521.912 232.634C523.836 230.956 526.458 230.132 529.78 230.16Z" fill="url(#paint9_linear_114_6296)"/>
<path d="M552.811 196.401L568.903 195.572L569.954 205.8C571.461 202.048 573.684 199.142 576.622 197.083C579.627 194.949 583.141 193.779 587.164 193.572C591.116 193.368 594.586 194.108 597.573 195.791C600.627 197.401 602.911 199.862 604.424 203.176C605.875 199.709 608.144 197.013 611.23 195.088C614.313 193.092 617.795 191.993 621.677 191.793C627.041 191.517 631.5 192.913 635.053 195.98C638.606 199.048 640.5 203.579 640.734 209.573L642.315 244.79L624.529 245.706L622.946 214.624C622.638 208.562 620.084 205.655 615.284 205.903C612.461 206.048 610.254 207.186 608.665 209.318C607.075 211.449 606.379 214.453 606.576 218.329L608.014 246.557L590.016 247.484L588.433 216.402C588.124 210.341 585.57 207.434 580.771 207.681C578.089 207.819 575.918 208.955 574.257 211.09C572.597 213.225 571.871 216.337 572.079 220.424L573.5 248.335L555.503 249.262L552.811 196.401Z" fill="url(#paint10_linear_114_6296)"/>
<path d="M704.698 206.801C705.036 209.176 705.225 211.502 705.263 213.777L669.476 218.888C670.463 222.311 671.986 224.731 674.044 226.148C676.092 227.495 678.725 227.939 681.943 227.479C686.841 226.78 689.846 224.319 690.958 220.097L705.903 222.775C705.06 227.386 702.574 231.234 698.445 234.319C694.376 237.324 689.472 239.236 683.735 240.055C674.989 241.304 667.724 239.917 661.94 235.896C656.215 231.795 652.741 225.447 651.517 216.854C650.711 211.195 651.173 206.175 652.905 201.793C654.627 197.341 657.397 193.738 661.217 190.983C665.036 188.227 669.675 186.46 675.132 185.681C680.519 184.912 685.321 185.295 689.538 186.832C693.755 188.368 697.146 190.878 699.713 194.361C702.349 197.834 704.011 201.98 704.698 206.801ZM676.908 198.152C671.241 198.961 668.346 202.689 668.222 209.336L687.323 206.609C685.767 200.201 682.296 197.382 676.908 198.152Z" fill="url(#paint11_linear_114_6296)"/>
<defs>
<linearGradient id="paint0_linear_114_6296" x1="-509.948" y1="114.081" x2="711.552" y2="234.635" gradientUnits="userSpaceOnUse">
<stop stop-color="#00BEDD"/>
<stop offset="1" stop-color="#953BED"/>
</linearGradient>
<linearGradient id="paint1_linear_114_6296" x1="-509.948" y1="114.081" x2="711.552" y2="234.635" gradientUnits="userSpaceOnUse">
<stop stop-color="#00BEDD"/>
<stop offset="1" stop-color="#953BED"/>
</linearGradient>
<linearGradient id="paint2_linear_114_6296" x1="-509.948" y1="114.081" x2="711.552" y2="234.635" gradientUnits="userSpaceOnUse">
<stop stop-color="#00BEDD"/>
<stop offset="1" stop-color="#953BED"/>
</linearGradient>
<linearGradient id="paint3_linear_114_6296" x1="-509.948" y1="114.081" x2="711.552" y2="234.635" gradientUnits="userSpaceOnUse">
<stop stop-color="#00BEDD"/>
<stop offset="1" stop-color="#953BED"/>
</linearGradient>
<linearGradient id="paint4_linear_114_6296" x1="-509.948" y1="114.081" x2="711.552" y2="234.635" gradientUnits="userSpaceOnUse">
<stop stop-color="#00BEDD"/>
<stop offset="1" stop-color="#953BED"/>
</linearGradient>
<linearGradient id="paint5_linear_114_6296" x1="-509.948" y1="114.081" x2="711.552" y2="234.635" gradientUnits="userSpaceOnUse">
<stop stop-color="#00BEDD"/>
<stop offset="1" stop-color="#953BED"/>
</linearGradient>
<linearGradient id="paint6_linear_114_6296" x1="-509.948" y1="114.081" x2="711.552" y2="234.635" gradientUnits="userSpaceOnUse">
<stop stop-color="#00BEDD"/>
<stop offset="1" stop-color="#953BED"/>
</linearGradient>
<linearGradient id="paint7_linear_114_6296" x1="-509.948" y1="114.081" x2="711.552" y2="234.635" gradientUnits="userSpaceOnUse">
<stop stop-color="#00BEDD"/>
<stop offset="1" stop-color="#953BED"/>
</linearGradient>
<linearGradient id="paint8_linear_114_6296" x1="-509.948" y1="114.081" x2="711.552" y2="234.635" gradientUnits="userSpaceOnUse">
<stop stop-color="#00BEDD"/>
<stop offset="1" stop-color="#953BED"/>
</linearGradient>
<linearGradient id="paint9_linear_114_6296" x1="-509.948" y1="114.081" x2="711.552" y2="234.635" gradientUnits="userSpaceOnUse">
<stop stop-color="#00BEDD"/>
<stop offset="1" stop-color="#953BED"/>
</linearGradient>
<linearGradient id="paint10_linear_114_6296" x1="-509.948" y1="114.081" x2="711.552" y2="234.635" gradientUnits="userSpaceOnUse">
<stop stop-color="#00BEDD"/>
<stop offset="1" stop-color="#953BED"/>
</linearGradient>
<linearGradient id="paint11_linear_114_6296" x1="-509.948" y1="114.081" x2="711.552" y2="234.635" gradientUnits="userSpaceOnUse">
<stop stop-color="#00BEDD"/>
<stop offset="1" stop-color="#953BED"/>
</linearGradient>
</defs>
</svg>
